<svg width="328" height="54" viewBox="0 0 328 54" fill="none" xmlns="http://www.w3.org/2000/svg">
<path d="M12.4661 0L25.295 40.435H25.7874L38.6422 0H51.0823L32.785 53.2204H18.3233L0 0H12.4661Z" fill="#343434"/>
<path d="M65.651 54C61.6253 54 58.1437 53.1424 55.2065 51.4273C52.2865 49.6949 50.0317 47.2868 48.4422 44.2031C46.8526 41.102 46.0578 37.5072 46.0578 33.4187C46.0578 29.2955 46.8526 25.692 48.4422 22.6083C50.0317 19.5072 52.2865 17.0991 55.2065 15.384C58.1437 13.6516 61.6253 12.7854 65.651 12.7854C69.6768 12.7854 73.1497 13.6516 76.0696 15.384C79.0069 17.0991 81.2703 19.5072 82.8599 22.6083C84.4495 25.692 85.2442 29.2955 85.2442 33.4187C85.2442 37.5072 84.4495 41.102 82.8599 44.2031C81.2703 47.2868 79.0069 49.6949 76.0696 51.4273C73.1497 53.1424 69.6768 54 65.651 54ZM65.7029 45.4244C67.5343 45.4244 69.0634 44.9047 70.2902 43.8653C71.5169 42.8085 72.4413 41.3705 73.0633 39.5515C73.7026 37.7324 74.0222 35.6622 74.0222 33.3407C74.0222 31.0193 73.7026 28.949 73.0633 27.1299C72.4413 25.3109 71.5169 23.873 70.2902 22.8162C69.0634 21.7594 67.5343 21.231 65.7029 21.231C63.8541 21.231 62.2991 21.7594 61.0378 22.8162C59.7938 23.873 58.8521 25.3109 58.2129 27.1299C57.5909 28.949 57.2799 31.0193 57.2799 33.3407C57.2799 35.6622 57.5909 37.7324 58.2129 39.5515C58.8521 41.3705 59.7938 42.8085 61.0378 43.8653C62.2991 44.9047 63.8541 45.4244 65.7029 45.4244Z" fill="#343434"/>
<path d="M105.301 54C101.223 54 97.7158 53.1338 94.7786 51.4013C91.8586 49.6516 89.6125 47.2262 88.0402 44.1251C86.4852 41.0241 85.7076 37.4552 85.7076 33.4187C85.7076 29.3301 86.4938 25.744 88.0661 22.6602C89.6557 19.5592 91.9104 17.1424 94.8304 15.41C97.7504 13.6602 101.223 12.7854 105.249 12.7854C108.722 12.7854 111.763 13.4177 114.372 14.6824C116.981 15.9471 119.045 17.7228 120.566 20.0096C122.086 22.2964 122.924 24.9817 123.08 28.0654H112.661C112.368 26.0731 111.59 24.4706 110.329 23.2579C109.085 22.0279 107.452 21.4129 105.43 21.4129C103.72 21.4129 102.225 21.8807 100.947 22.8162C99.6855 23.7344 98.7007 25.077 97.9923 26.8441C97.2839 28.6112 96.9297 30.7507 96.9297 33.2628C96.9297 35.8094 97.2752 37.975 97.9664 39.7594C98.6748 41.5438 99.6682 42.9038 100.947 43.8393C102.225 44.7748 103.72 45.2425 105.43 45.2425C106.692 45.2425 107.823 44.9827 108.826 44.4629C109.845 43.9432 110.683 43.1896 111.34 42.2021C112.013 41.1973 112.454 39.9933 112.661 38.59H123.08C122.907 41.6391 122.078 44.3243 120.592 46.6458C119.123 48.95 117.093 50.7517 114.501 52.051C111.91 53.3503 108.843 54 105.301 54Z" fill="#343434"/>
<path d="M136.392 53.974C133.852 53.974 131.588 53.5322 129.601 52.6487C127.614 51.7478 126.042 50.4225 124.884 48.6728C123.744 46.9057 123.174 44.7055 123.174 42.0722C123.174 39.8547 123.58 37.9923 124.392 36.4851C125.204 34.9779 126.31 33.7652 127.709 32.847C129.109 31.9288 130.699 31.2358 132.478 30.768C134.275 30.3003 136.158 29.9711 138.128 29.7806C140.443 29.538 142.309 29.3128 143.726 29.1049C145.143 28.8797 146.171 28.5505 146.81 28.1174C147.45 27.6843 147.769 27.0433 147.769 26.1944V26.0385C147.769 24.3927 147.251 23.1193 146.214 22.2185C145.195 21.3176 143.743 20.8672 141.86 20.8672C139.873 20.8672 138.292 21.309 137.117 22.1925C135.942 23.0587 135.165 24.1501 134.785 25.4668L124.573 24.6352C125.092 22.2098 126.111 20.1136 127.632 18.3465C129.152 16.5621 131.113 15.1935 133.515 14.2406C135.934 13.2705 138.733 12.7854 141.912 12.7854C144.124 12.7854 146.24 13.0452 148.262 13.565C150.3 14.0847 152.106 14.8903 153.678 15.9817C155.268 17.0731 156.52 18.4764 157.436 20.1915C158.352 21.8893 158.81 23.9249 158.81 26.2984V53.2204H148.339V47.6853H148.028C147.389 48.9326 146.534 50.0327 145.463 50.9856C144.391 51.9211 143.104 52.6574 141.601 53.1944C140.098 53.7141 138.361 53.974 136.392 53.974ZM139.553 46.334C141.178 46.334 142.612 46.0135 143.856 45.3725C145.1 44.7141 146.076 43.8306 146.784 42.7218C147.493 41.6131 147.847 40.3571 147.847 38.9538V34.718C147.501 34.9432 147.026 35.1511 146.421 35.3417C145.834 35.5149 145.169 35.6795 144.426 35.8354C143.683 35.974 142.94 36.1039 142.197 36.2252C141.454 36.3292 140.78 36.4244 140.175 36.5111C138.88 36.7016 137.748 37.0048 136.78 37.4206C135.813 37.8364 135.061 38.3994 134.526 39.1097C133.99 39.8027 133.722 40.6689 133.722 41.7084C133.722 43.2156 134.266 44.3677 135.355 45.1646C136.461 45.9442 137.86 46.334 139.553 46.334Z" fill="#343434"/>
<path d="M173.307 0V53.2204H162.267C162.267 53.2204 162.267 20.7839 162.267 0C166.578 0 173.307 0 173.307 0Z" fill="#343434"/>
<path d="M162.267 9.27719C162.267 9.27719 162.267 3.62297 162.267 0C184.352 0 218.821 0 218.821 0V9.27719H202.571V53.2204H191.478V9.27719H162.267Z" fill="#525AF3"/>
<path d="M233.053 54C228.958 54 225.433 53.1684 222.478 51.5053C219.541 49.8248 217.278 47.4514 215.688 44.385C214.099 41.3012 213.304 37.6545 213.304 33.4447C213.304 29.3388 214.099 25.7353 215.688 22.6343C217.278 19.5332 219.515 17.1165 222.401 15.384C225.303 13.6516 228.707 12.7854 232.612 12.7854C235.238 12.7854 237.683 13.2098 239.946 14.0587C242.227 14.8903 244.214 16.1463 245.907 17.8268C247.618 19.5072 248.948 21.6208 249.899 24.1675C250.849 26.6968 251.324 29.6593 251.324 33.0549V36.0953H217.71V29.2348H240.931C240.931 27.641 240.586 26.2291 239.895 24.999C239.203 23.769 238.245 22.8075 237.018 22.1145C235.808 21.4042 234.4 21.0491 232.793 21.0491C231.117 21.0491 229.632 21.4389 228.336 22.2185C227.057 22.9808 226.055 24.0115 225.329 25.3109C224.604 26.5929 224.232 28.0221 224.215 29.5987V36.1213C224.215 38.0962 224.578 39.8027 225.303 41.2406C226.046 42.6785 227.092 43.7873 228.439 44.5669C229.787 45.3465 231.385 45.7363 233.234 45.7363C234.461 45.7363 235.584 45.563 236.603 45.2166C237.623 44.8701 238.495 44.3503 239.221 43.6574C239.946 42.9644 240.499 42.1155 240.879 41.1107L251.091 41.7863C250.572 44.2464 249.51 46.3946 247.903 48.231C246.313 50.05 244.257 51.4706 241.735 52.4928C239.229 53.4976 236.335 54 233.053 54Z" fill="#525AF3"/>
<path d="M271.407 54C267.329 54 263.822 53.1338 260.884 51.4013C257.964 49.6516 255.718 47.2262 254.146 44.1251C252.591 41.0241 251.813 37.4552 251.813 33.4187C251.813 29.3301 252.599 25.744 254.172 22.6602C255.761 19.5592 258.016 17.1424 260.936 15.41C263.856 13.6602 267.329 12.7854 271.355 12.7854C274.828 12.7854 277.868 13.4177 280.477 14.6824C283.086 15.9471 285.151 17.7228 286.672 20.0096C288.192 22.2964 289.03 24.9817 289.186 28.0654H278.767C278.473 26.0731 277.696 24.4706 276.434 23.2579C275.19 22.0279 273.558 21.4129 271.536 21.4129C269.826 21.4129 268.331 21.8807 267.052 22.8162C265.791 23.7344 264.806 25.077 264.098 26.8441C263.39 28.6112 263.035 30.7507 263.035 33.2628C263.035 35.8094 263.381 37.975 264.072 39.7594C264.78 41.5438 265.774 42.9038 267.052 43.8393C268.331 44.7748 269.826 45.2425 271.536 45.2425C272.797 45.2425 273.929 44.9827 274.931 44.4629C275.951 43.9432 276.789 43.1896 277.445 42.2021C278.119 41.1973 290.938 28.0135 291.146 26.6102V35C290.973 38.0491 288.183 44.3243 286.698 46.6458C285.229 48.95 283.199 50.7517 280.607 52.051C278.015 53.3503 274.949 54 271.407 54Z" fill="#525AF3"/>
<path d="M302.186 30.1444V53.2204H291.146V0H301.875V20.3475H302.342C303.24 17.9913 304.692 16.1463 306.696 14.8123C308.7 13.461 311.214 12.7854 314.238 12.7854C317.002 12.7854 319.412 13.3917 321.469 14.6044C323.542 15.7998 325.149 17.5236 326.289 19.7757C327.447 22.0106 328.017 24.6872 328 27.8056V53.2204H316.959V29.7806C316.976 27.3205 316.354 25.4062 315.093 24.0375C313.849 22.6689 312.104 21.9846 309.858 21.9846C308.355 21.9846 307.024 22.3051 305.867 22.9461C304.726 23.5871 303.828 24.5226 303.171 25.7526C302.532 26.9654 302.204 28.4293 302.186 30.1444Z" fill="#525AF3"/>
</svg>
